<?xml version="1.0" encoding="utf-8"?>
<!-- Generator: Adobe Illustrator 22.0.0, SVG Export Plug-In . SVG Version: 6.00 Build 0)  -->
<svg version="1.1" id="Layer_1" xmlns="http://www.w3.org/2000/svg" xmlns:xlink="http://www.w3.org/1999/xlink" x="0" y="0" width="20" height="20" stroke-width="0" fill="white"
	 viewBox="16 20 94 94" style="" xml:space="preserve">
<g>
	<path d="M32.1,64.9c0.7,0.7,1.7,1.1,2.7,1.1c1,0,2-0.4,2.7-1.1L71.4,31c0.7-0.7,1.1-1.7,1.1-2.7c0-1-0.4-1.9-1.1-2.6
		c-0.7-0.7-1.7-1.1-2.7-1.1s-1.9,0.4-2.7,1.1L34.8,56.9L22.4,44.5c-0.7-0.7-1.7-1.1-2.7-1.1s-1.9,0.4-2.7,1.1
		c-0.7,0.7-1.1,1.7-1.1,2.6c0,1,0.4,2,1.1,2.7L32.1,64.9z"/>
</g>
</svg>
